<svg width="240" height="111" viewBox="0 0 240 111" fill="none" xmlns="http://www.w3.org/2000/svg">
<path fill-rule="evenodd" clip-rule="evenodd" d="M85.3999 1.402C78.3189 3.648 73.4619 6.692 68.5029 11.993L63.6549 17.176L59.3349 16.088C56.9589 15.49 51.4289 15 47.0459 15C33.3289 15 21.9369 19.908 12.6779 29.806C2.92594 40.232 -0.514058 49.955 0.0609421 65.471C0.410942 74.919 0.725942 76.262 4.27694 83.449C23.4329 122.209 77.9159 119.123 93.0989 78.419C95.1979 72.794 95.3249 70.701 95.6709 36.25L96.0339 0L92.7169 0.0670013C90.8929 0.104001 87.5999 0.705 85.3999 1.402ZM111.216 1.943C97.4899 8.176 98.0909 28.706 112.185 35.016L116.052 36.748L111.41 38.995C108.519 40.395 105.756 42.771 104.084 45.296L101.4 49.35L101.109 80.175L100.818 111H103.27C107.584 111 117.45 107.406 122.306 104.065C127.498 100.493 132.009 94.884 135.228 88C137.104 83.989 137.336 81.647 137.366 66.431C137.4 49.562 137.369 49.315 134.716 45.302C133.041 42.768 130.287 40.398 127.39 38.995L122.748 36.748L126.574 35C136.245 30.582 140.313 20.712 136.362 11.254C134.377 6.504 132.273 4.233 127.69 1.894C122.981 -0.510003 116.577 -0.489999 111.216 1.943ZM178.347 16.351C161.962 21.693 149.537 34.518 145.261 50.5C143.446 57.286 143.556 69.466 145.493 76.068C152.144 98.736 175.159 113.666 198.312 110.33C222.074 106.907 239.935 86.376 239.888 62.54C239.852 44.247 229.329 27.769 212.312 19.359C204.833 15.663 204.046 15.492 193.454 15.266C186.382 15.115 180.94 15.506 178.347 16.351Z" fill="url(#paint0_linear_1301_7)"/>
<defs>
<linearGradient id="paint0_linear_1301_7" x1="215" y1="20.5" x2="29" y2="102" gradientUnits="userSpaceOnUse">
<stop stop-color="#39A0DA"/>
<stop offset="1" stop-color="#4B66AD"/>
</linearGradient>
</defs>
</svg>
